<svg xmlns="http://www.w3.org/2000/svg" width="512" height="512" viewBox="0 0 512 512"><defs><style>.a{fill:#b22234;}.b{fill:#fff;}</style></defs><rect class="a" width="512" height="512"/><path class="b" d="M114.6,512H397.4l1.1-32.5.2-7.2-4.8-.7v-10l-7-.9-14.1-1.8.4-24.6,6.4.4,1.7-6.4,4.9-18.7,2.3-8.4-8.6-1.5-5.1-.9-2.5-7.5-1.4-4.2-4.3-1.1L352,382.5c-2.8-11.5-10.8-39.7-27.7-57.5a236.9,236.9,0,0,0-33.9-30.1l-.3-3.2-.6-6.6-4.9-.4V259.3l5.7-1.8-.7-6.4-.5-5.5-.4-4-3.4-2-7.8-4.9-.8-1.7-3.2-7.9-.3-.8-1.6-7.4-2.2-10.7-.9-4.1c.2-.9.5-1.8.8-2.9a17.8,17.8,0,0,0-1.5-13.3,9.4,9.4,0,0,0-1.8-7.2c-2.1-2.7-6.3-5.5-10.4-5.5a10.9,10.9,0,0,0-2.6.4c-3.5,1-5.8,3.8-6.6,7.8a22.1,22.1,0,0,0-3.6,7.7,21.1,21.1,0,0,0,.6,13.2l-.8,3.9-2.2,10.7-1.6,7.4-.3.8-3.2,7.9-.8,1.7-7.8,4.9-3.4,2-.4,4-.5,5.5-.7,6.4,5.7,1.8v25.4l-4.9.4-.6,6.6-.3,3.2A236.9,236.9,0,0,0,187.7,325c-16.9,17.8-24.9,46-27.7,57.5L145.4,386l-4.3,1.1-1.4,4.2-2.5,7.5-5.1.9-8.6,1.5,2.3,8.4,4.9,18.7,1.7,6.4,6.4-.4.4,24.6-14.1,1.8-7,.9v10l-4.8.7.2,7.2Zm11.5-33.4v-10l21.2-2.7-.6-40.2-8.2.6-5-18.7,9.8-1.8,4-12,19.5-4.6s6.9-37.8,26.7-58.7,35.6-31.2,35.6-31.2l.7-6.8,5.6-.5V253.5l-5.1-1.6.6-5.5,9.9-6.2,1.8-4,3.3-8.1H249l2.7-9.3-3.5-.2,2.2-10.7h1.9c.3-1,.8-3.2.4-4.4s-3.9-6.2-2.2-12.3,3.3-5.8,3.6-5.8h0s-.2-3.7,1.2-4.1h.3c1.6,0,4.7,2.1,4.3,3.5a2.5,2.5,0,0,1-1.4,1.9s4.8,4.2,3.1,10.4a79.1,79.1,0,0,0-2.1,9.2l.4,1.7h1.7l2.2,10.7-3.5.2,2.7,9.3h3.1l3.3,8.1,1.8,4,9.9,6.2.6,5.5-5.1,1.6V292l5.6.5.7,6.8s15.8,10.3,35.6,31.2,26.7,58.7,26.7,58.7l19.5,4.6,4,12,9.8,1.8-5,18.7-8.2-.6-.6,40.2,21.2,2.7v10l4.6.6L389.4,512H122.6l-1.1-32.8Z"/><path class="b" d="M256,81.3l5.5,17,1.4,4.2h22.2L270.7,113l-3.6,2.5,1.4,4.2,5.5,17-14.5-10.5-3.5-2.6-3.5,2.6L238,136.7l5.5-17,1.4-4.2-3.6-2.5-14.4-10.5h22.2l1.4-4.2,5.5-17m0-19.4L244.8,96.5H208.4l29.4,21.3-11.2,34.6L256,131l29.4,21.4-11.2-34.6,29.4-21.3H267.2L256,61.9Z"/></svg>